<?xml version="1.0" encoding="utf-8"?>
<!-- Generator: Adobe Illustrator 27.5.0, SVG Export Plug-In . SVG Version: 6.00 Build 0)  -->
<svg version="1.1" xmlns="http://www.w3.org/2000/svg" xmlns:xlink="http://www.w3.org/1999/xlink" x="0px" y="0px"
	 viewBox="0 0 500 500" style="enable-background:new 0 0 500 500;" xml:space="preserve">
<g id="Background_Complete">
	<g>
		<g>
			<path style="fill:#F5F5F5;" d="M430.298,289.76v42.411c0,7.674-6.221,13.895-13.894,13.895H264.329
				c-7.673,0-13.894-6.221-13.894-13.895v-35.836l-18.933-19.892l184.859-0.578C424.051,275.841,430.298,282.068,430.298,289.76z"/>
			<g>
				<polygon style="fill:#E6E6E6;" points="272.852,301.56 410.85,300.923 410.835,296.682 272.838,297.319 				"/>
			</g>
			<g>
				<polygon style="fill:#E6E6E6;" points="272.852,315.515 410.85,314.877 410.835,310.636 272.838,311.273 				"/>
			</g>
			<g>
				
					<rect x="272.843" y="324.74" transform="matrix(1 -0.0049 0.0049 1 -1.6043 1.4804)" style="fill:#E6E6E6;" width="54.602" height="4.241"/>
			</g>
		</g>
		<path style="fill:#F5F5F5;" d="M160.789,46.58h89.695c4.44,0,8.04,3.599,8.04,8.039v43.872c0,4.44-3.6,8.039-8.04,8.039h-76.113
			c-4.44,0-8.04-3.599-8.04-8.039V52.123L160.789,46.58z"/>
		<path style="fill:#F0F0F0;" d="M273.474,126.445v15.754c0,2.211,1.793,4.003,4.004,4.003h88.061c2.211,0,4.004-1.793,4.004-4.003
			v-8.614l10.112-10.819l-102.164-0.326C275.274,122.434,273.474,124.229,273.474,126.445z"/>
		<g>
			<path style="fill:#E0E0E0;" d="M214.111,95.095v28.129c0,5.089-4.125,9.215-9.215,9.215H104.033c-5.09,0-9.216-4.126-9.216-9.215
				V99.456L82.26,86.263l122.607-0.383C209.967,85.864,214.111,89.994,214.111,95.095z"/>
			<g>
				<polygon style="fill:#F0F0F0;" points="109.685,102.922 201.212,102.499 201.202,99.686 109.676,100.109 				"/>
			</g>
			<g>
				<polygon style="fill:#F0F0F0;" points="109.685,112.177 201.212,111.754 201.202,108.941 109.676,109.364 				"/>
			</g>
			<g>
				
					<rect x="109.679" y="118.296" transform="matrix(1 -0.0049 0.0049 1 -0.5875 0.6302)" style="fill:#F0F0F0;" width="36.215" height="2.813"/>
			</g>
		</g>
		<g>
			<path style="fill:#F0F0F0;" d="M65.454,187.924v42.412c0,7.673,6.22,13.894,13.894,13.894h152.075
				c7.674,0,13.895-6.221,13.895-13.894v-35.836l18.933-19.892L79.391,174.03C71.701,174.005,65.454,180.233,65.454,187.924z"/>
			<g>
				<polygon style="fill:#E6E6E6;" points="222.9,199.725 84.902,199.087 84.916,194.846 222.914,195.483 				"/>
			</g>
			<g>
				<polygon style="fill:#E6E6E6;" points="222.9,213.679 84.902,213.042 84.916,208.8 222.914,209.438 				"/>
			</g>
			<g>
				
					<rect x="193.487" y="197.724" transform="matrix(0.0049 -1 1 0.0049 -30.3767 419.5229)" style="fill:#E6E6E6;" width="4.242" height="54.602"/>
			</g>
		</g>
		<g>
			<path style="fill:#F5F5F5;" d="M365.598,80.009c0.21,10.196-7.885,18.632-18.082,18.843c-10.196,0.21-18.633-7.885-18.843-18.082
				c-0.21-10.196,7.885-18.633,18.082-18.843C356.952,61.717,365.388,69.813,365.598,80.009z"/>
			<g>
				<path style="fill:#E0E0E0;" d="M340.765,75.737c0.7-0.058,1.335,0.714,1.418,1.725c0.083,1.01-0.417,1.875-1.116,1.934
					c-0.7,0.058-1.335-0.715-1.418-1.725C339.565,76.66,340.065,75.794,340.765,75.737z"/>
				<g>
					<path style="fill:#E0E0E0;" d="M342.389,71.062c-0.013,0.159-1.56,0.013-3.289,0.667c-1.741,0.625-2.821,1.741-2.935,1.628
						c-0.119-0.066,0.866-1.441,2.751-2.125C340.795,70.527,342.437,70.934,342.389,71.062z"/>
				</g>
			</g>
			<g>
				<path style="fill:#E0E0E0;" d="M352.505,75.495c-0.702-0.029-1.304,0.769-1.346,1.781c-0.042,1.013,0.494,1.857,1.195,1.886
					c0.702,0.029,1.304-0.769,1.346-1.782C353.742,76.368,353.207,75.523,352.505,75.495z"/>
				<g>
					<path style="fill:#E0E0E0;" d="M350.69,70.89c-0.053-0.125,1.571-0.6,3.477,0.026c1.913,0.606,2.953,1.939,2.837,2.01
						c-0.109,0.117-1.234-0.953-2.999-1.505C352.249,70.839,350.71,71.049,350.69,70.89z"/>
				</g>
			</g>
			<g>
				<path style="fill:#E0E0E0;" d="M356.246,80.201c0.028,0.004,0.014,0.361-0.128,0.989c-0.139,0.628-0.463,1.519-1.073,2.506
					c-0.605,0.987-1.542,2.044-2.816,2.914c-1.266,0.871-2.9,1.519-4.693,1.627c-1.795,0.078-3.488-0.397-4.838-1.131
					c-1.358-0.733-2.399-1.688-3.103-2.607c-0.709-0.919-1.124-1.771-1.327-2.381c-0.207-0.61-0.258-0.964-0.231-0.97
					c0.11-0.048,0.398,1.395,1.848,3.114c0.713,0.854,1.735,1.736,3.04,2.411c1.298,0.676,2.9,1.106,4.583,1.034
					c1.681-0.103,3.229-0.697,4.449-1.504c1.228-0.806,2.152-1.789,2.773-2.713C355.995,81.63,356.132,80.165,356.246,80.201z"/>
			</g>
		</g>
		<g>
			<path style="fill:#F0F0F0;" d="M93.35,287.969h2.674l5.835-7.78v-5.105c0,0,4.133-0.243,3.647,6.443
				c-0.486,6.686,0.04,4.983,0.04,4.983s8.776,0.032,9.506,0.762c0.53,0.53,0.77,8.869,0.861,13.392
				c0.046,2.276-1.414,4.394-3.627,4.932c-0.314,0.077-0.632,0.122-0.945,0.122c-2.188,0-13.372-1.702-13.372-1.702h-4.62V287.969z"
				/>
			<polygon style="fill:#F0F0F0;" points="85.696,286.567 87.34,304.063 91.92,304.063 91.92,286.92 			"/>
		</g>
		<path style="fill:#F0F0F0;" d="M461.013,135.925c-1.245-1.49-3.504-1.434-4.945-0.239c-1.441,1.195-2.069,2.551-2.249,4.566
			c-0.444-1.974-1.36-3.229-2.957-4.224c-1.597-0.996-3.86-0.755-4.909,0.886c-0.615,0.962-0.736,2.247-0.505,3.413
			c0.231,1.165,0.645,2.363,1.421,3.191c2.767,2.948,4.2,3.41,7.634,5.407c3.119-2.428,4.13-3.05,6.468-6.333
			c0.656-0.922,0.907-2.163,0.983-3.349C462.031,138.057,461.744,136.799,461.013,135.925z"/>
	</g>
</g>
<g id="Background_Simple" style="display:none;">
	<path style="display:inline;fill:#EBEBEB;" d="M91.946,182.395c8.195,103.296,48.4,203.463,169.203,195.283
		c62.273-4.218,182.317-55.436,170.604-133.981c-16.144-108.249-128.412-45.803-185.658-72.1
		c-39.241-18.025-25.453-89.748-91.209-88.618C102.906,83.871,88.538,139.453,91.946,182.395z"/>
</g>
<g id="Device">
	<g>
		<g>
			<g>
				<g>
					<g>
						<path style="fill:#263238;" d="M296.219,405.726l-104.079-0.481c-12.518-0.057-22.62-10.249-22.567-22.767l1.103-260.927
							c0.053-12.525,10.252-22.634,22.776-22.576l104.079,0.481c12.518,0.058,22.619,10.25,22.566,22.768l-1.103,260.928
							C318.942,395.675,308.744,405.783,296.219,405.726z"/>
					</g>
					<g>
						<path style="fill:#FFFFFF;" d="M297.383,108.46l-20.179-0.093c-2.706-0.012-4.91,2.271-4.921,5.1l-0.017,3.661
							c-0.011,2.829-2.215,5.112-4.921,5.1l-39.333-0.182c-2.706-0.012-4.89-2.316-4.878-5.145l0.016-3.661
							c0.011-2.829-2.173-5.132-4.879-5.145l-7.097-0.033l-17.662-0.082c-8.771-0.04-15.914,7.04-15.951,15.811l-1.077,254.683
							c-0.037,8.768,7.038,15.905,15.805,15.946L296.16,394.9c8.771,0.041,15.913-7.039,15.951-15.811l1.077-254.685
							C313.224,115.639,306.15,108.501,297.383,108.46z"/>
					</g>
				</g>
			</g>
			<g>
				<path style="fill:#455A64;" d="M240.29,362.759c0,1.203-0.976,2.179-2.179,2.179c-1.204,0-2.179-0.976-2.179-2.179
					c0-1.204,0.976-2.18,2.179-2.18C239.314,360.579,240.29,361.555,240.29,362.759z"/>
				<path style="fill:#455A64;" d="M248.569,362.759c0,1.203-0.976,2.179-2.179,2.179s-2.179-0.976-2.179-2.179
					c0-1.204,0.976-2.18,2.179-2.18S248.569,361.555,248.569,362.759z"/>
				<path style="fill:#455A64;" d="M256.848,362.759c0,1.203-0.976,2.179-2.18,2.179s-2.179-0.976-2.179-2.179
					c0-1.204,0.976-2.18,2.179-2.18S256.848,361.555,256.848,362.759z"/>
			</g>
			<g>
				<g>
					<path style="fill:#455A64;" d="M196.911,179.513c0,0-0.006-0.188,0.004-0.557c0.013-0.368,0.08-0.917,0.269-1.616
						c0.208-0.691,0.555-1.535,1.192-2.392c0.631-0.852,1.554-1.727,2.819-2.321c1.239-0.659,2.858-0.811,4.521-0.75
						c1.682,0,3.512-0.001,5.48-0.002c3.943,0.002,8.445,0.004,13.445,0.006c20.023,0.041,48.018,0.097,79.979,0.161l0.594,0.001
						l-0.41,0.431c-3.262,3.43-6.732,7.076-10.255,10.78l0.071-0.179c0,3.425,0.001,7.08,0.001,10.769c0,2.377,0,4.739-0.001,7.086
						c-0.009,1.154,0.066,2.375-0.266,3.551c-0.303,1.167-0.881,2.258-1.681,3.149c-0.793,0.893-1.781,1.615-2.883,2.063
						c-1.094,0.458-2.314,0.609-3.457,0.584c-2.279-0.001-4.539-0.001-6.78-0.002c-8.962-0.005-17.607-0.01-25.842-0.015
						c-16.467-0.021-31.297-0.04-43.758-0.056c-1.557-0.003-3.077-0.006-4.558-0.009c-1.463,0.045-3.01-0.104-4.285-0.774
						c-2.612-1.244-4.195-3.877-4.32-6.391c-0.04-4.966,0.014-9.213,0.017-12.701c0.021-3.471,0.038-6.169,0.049-8.02
						c0.011-0.905,0.02-1.599,0.026-2.086C196.893,179.753,196.911,179.513,196.911,179.513s0.018,0.241,0.026,0.71
						c0.006,0.487,0.015,1.181,0.026,2.086c0.011,1.851,0.028,4.549,0.049,8.02c0.027,3.478,0.004,7.755,0.071,12.681
						c0.133,2.417,1.668,4.934,4.173,6.112c1.241,0.636,2.658,0.771,4.141,0.722c1.481-0.003,3.001-0.006,4.558-0.009
						c12.46-0.016,27.29-0.035,43.758-0.056c8.235-0.005,16.88-0.01,25.842-0.015c2.241-0.001,4.501-0.001,6.78-0.002
						c1.133,0.021,2.225-0.119,3.26-0.547c1.028-0.417,1.95-1.093,2.69-1.927c0.747-0.832,1.286-1.851,1.567-2.939
						c0.31-1.083,0.241-2.235,0.249-3.419c0-2.347,0-4.709,0-7.086c0-3.689,0-7.344,0-10.769v-0.104l0.072-0.075
						c3.525-3.702,6.996-7.347,10.261-10.775l0.184,0.432c-31.961-0.136-59.956-0.254-79.979-0.339
						c-5-0.029-9.502-0.056-13.444-0.079c-1.969-0.013-3.798-0.025-5.48-0.037c-1.683-0.073-3.212,0.06-4.443,0.691
						c-1.241,0.567-2.155,1.413-2.786,2.241c-0.637,0.832-0.993,1.657-1.212,2.335C196.878,178.746,196.956,179.518,196.911,179.513
						z"/>
				</g>
				<g>
					<polygon style="fill:#455A64;" points="282.216,185.906 207.448,185.561 207.456,183.263 282.223,183.608 					"/>
				</g>
				<g>
					<polygon style="fill:#455A64;" points="282.216,193.467 207.448,193.122 207.456,190.823 282.223,191.169 					"/>
				</g>
				<g>
					
						<rect x="266.28" y="184.822" transform="matrix(0.0049 -1 1 0.0049 66.5016 466.058)" style="fill:#455A64;" width="2.298" height="29.584"/>
				</g>
			</g>
			<g>
				<path style="fill:#E8505B;" d="M298.564,230.153v22.979c0,4.157-3.37,7.527-7.528,7.527h-82.395
					c-4.157,0-7.528-3.37-7.528-7.527v-19.417l-10.258-10.777l100.158-0.313C295.179,222.613,298.564,225.987,298.564,230.153z"/>
				<g>
					<polygon style="fill:#FFFFFF;" points="213.259,236.548 288.027,236.202 288.019,233.904 213.251,234.249 					"/>
				</g>
				<g>
					<polygon style="fill:#FFFFFF;" points="213.259,244.107 288.027,243.763 288.019,241.465 213.251,241.809 					"/>
				</g>
				<g>
					
						<rect x="213.254" y="249.106" transform="matrix(1 -0.0049 0.0049 1 -1.2281 1.1246)" style="fill:#FFFFFF;" width="29.584" height="2.298"/>
				</g>
			</g>
			<g>
				<g>
					<g>
						<path style="fill:#E8505B;" d="M253.706,142.12c1.402-0.588,2.399-2.035,2.408-3.738c0.009-2.232-1.68-4.05-3.773-4.059
							c-2.092-0.01-3.797,1.792-3.806,4.024c-0.007,1.72,0.997,3.183,2.415,3.773c-5.832,0.878-5.567,7.217-5.567,7.217l13.79,0.064
							C259.173,149.4,259.487,142.993,253.706,142.12z"/>
						<path style="opacity:0.5;fill:#FFFFFF;" d="M253.706,142.12c1.402-0.588,2.399-2.035,2.408-3.738
							c0.009-2.232-1.68-4.05-3.773-4.059c-2.092-0.01-3.797,1.792-3.806,4.024c-0.007,1.72,0.997,3.183,2.415,3.773
							c-5.832,0.878-5.567,7.217-5.567,7.217l13.79,0.064C259.173,149.4,259.487,142.993,253.706,142.12z"/>
					</g>
					<g>
						<path style="fill:#E8505B;" d="M246.138,142.12c1.402-0.588,2.399-2.035,2.408-3.738c0.009-2.232-1.68-4.05-3.773-4.059
							c-2.092-0.01-3.797,1.792-3.806,4.024c-0.007,1.72,0.997,3.183,2.415,3.773c-5.831,0.878-5.567,7.217-5.567,7.217
							l13.791,0.064C251.605,149.4,251.919,142.993,246.138,142.12z"/>
					</g>
				</g>
				<g>
					
						<rect x="230.128" y="152.169" transform="matrix(1 0.0046 -0.0046 1 0.7165 -1.1475)" style="fill:#E8505B;" width="37.067" height="4.596"/>
					
						<rect x="230.128" y="152.169" transform="matrix(1 0.0046 -0.0046 1 0.7165 -1.1475)" style="opacity:0.3;fill:#FFFFFF;" width="37.067" height="4.596"/>
				</g>
			</g>
			<g>
				<g>
					<path style="fill:#455A64;" d="M198.645,282.522c0,0-0.021-0.185,0.017-0.546c0.036-0.358,0.146-0.905,0.508-1.523
						c0.351-0.614,0.986-1.304,1.963-1.711c0.991-0.445,2.235-0.27,3.563-0.311c5.401-0.002,13.211-0.003,22.928-0.006
						c19.475,0.04,46.584,0.097,77.203,0.16l0.593,0.001l-0.405,0.434c-3.231,3.458-6.646,7.113-10.111,10.82l0.07-0.178
						c0,0.271,0,0.564,0,0.859c0,2.143-0.001,4.272-0.001,6.389c-0.005,0.535,0.011,1.044-0.012,1.599
						c-0.029,0.56-0.171,1.113-0.415,1.617c-0.484,1.01-1.378,1.807-2.43,2.17c-0.518,0.189-1.097,0.25-1.622,0.242h-1.556
						c-1.036,0-2.068-0.001-3.095-0.001c-2.055-0.001-4.093-0.002-6.114-0.002c-8.082-0.006-15.878-0.011-23.305-0.016
						c-14.85-0.021-28.223-0.04-39.46-0.056c-2.808-0.007-5.481-0.013-8.012-0.019c-1.265-0.003-2.494-0.007-3.686-0.01
						c-0.596-0.002-1.182-0.004-1.759-0.005c-0.568-0.012-1.152,0.037-1.726-0.098c-1.136-0.243-2.095-0.97-2.65-1.883
						c-0.281-0.456-0.465-0.958-0.551-1.465c-0.092-0.514-0.055-1.009-0.06-1.482c0.008-1.909,0.016-3.654,0.023-5.227
						c0.021-3.127,0.037-5.561,0.049-7.232c0.011-0.814,0.02-1.439,0.026-1.882C198.627,282.739,198.645,282.522,198.645,282.522
						s0.018,0.217,0.027,0.641c0.006,0.442,0.015,1.067,0.026,1.882c0.011,1.672,0.028,4.105,0.049,7.232
						c0.007,1.572,0.014,3.317,0.022,5.227c0.008,0.48-0.022,0.969,0.067,1.438c0.084,0.474,0.26,0.942,0.525,1.366
						c0.525,0.85,1.425,1.521,2.482,1.74c0.52,0.122,1.083,0.073,1.665,0.081c0.577-0.002,1.163-0.003,1.759-0.005
						c1.192-0.003,2.42-0.007,3.686-0.01c2.53-0.006,5.204-0.012,8.012-0.019c11.238-0.016,24.611-0.035,39.46-0.056
						c7.427-0.005,15.223-0.01,23.305-0.016c2.021-0.001,4.059-0.001,6.114-0.002c1.027,0,2.059-0.001,3.095-0.001h1.556
						c0.514,0.005,0.984-0.048,1.451-0.214c0.922-0.319,1.709-1.021,2.133-1.907c0.214-0.442,0.338-0.928,0.364-1.42
						c0.022-0.498,0.006-1.047,0.011-1.57c0-2.116-0.001-4.246-0.001-6.389c0-0.295,0-0.589,0-0.859v-0.103l0.07-0.075
						c3.465-3.706,6.881-7.36,10.114-10.817l0.188,0.435c-30.619-0.132-57.728-0.248-77.203-0.331
						c-9.716-0.065-17.526-0.116-22.927-0.152c-1.342,0.025-2.564-0.159-3.509,0.256c-0.948,0.379-1.577,1.036-1.933,1.628
						c-0.367,0.595-0.491,1.128-0.542,1.479C198.657,282.337,198.659,282.523,198.645,282.522z"/>
				</g>
				<g>
					<polygon style="fill:#455A64;" points="285.568,288.584 210.8,288.239 210.808,285.941 285.576,286.286 					"/>
				</g>
				<g>
					
						<rect x="269.256" y="279.589" transform="matrix(0.0049 -1 1 0.0049 -25.6719 563.7168)" style="fill:#455A64;" width="2.298" height="30.337"/>
				</g>
			</g>
			<path style="fill:#E8505B;" d="M295.932,323.541v15.754c0,2.211-1.793,4.004-4.003,4.004h-88.061
				c-2.211,0-4.003-1.793-4.003-4.004v-8.613l-10.112-10.819l102.164-0.325C294.132,319.53,295.932,321.324,295.932,323.541z"/>
			<g>
				<polygon style="fill:#FFFFFF;" points="209.009,329.603 283.777,329.257 283.769,326.959 209.001,327.305 				"/>
			</g>
			<g>
				<polygon style="fill:#FFFFFF;" points="209.009,336.999 283.778,336.653 283.771,334.355 209.001,334.701 				"/>
			</g>
		</g>
	</g>
</g>
<g id="Emojis">
	<g>
		<g>
			<circle style="fill:#E8505B;" cx="416.449" cy="123.001" r="11.725"/>
			<circle style="opacity:0.5;fill:#FFFFFF;" cx="416.449" cy="123.001" r="11.725"/>
		</g>
		<path style="fill:#263238;" d="M412.559,119.637c0.445-0.027,0.838,0.471,0.877,1.113c0.04,0.642-0.289,1.185-0.734,1.212
			c-0.445,0.028-0.838-0.471-0.878-1.113C411.785,120.207,412.114,119.664,412.559,119.637z"/>
		<g>
			<path style="fill:#263238;" d="M413.651,116.69c-0.027,0.169-0.985,0.117-2.056,0.499c-1.079,0.361-1.801,0.993-1.926,0.877
				c-0.129-0.087,0.493-1.009,1.733-1.432C412.64,116.2,413.698,116.542,413.651,116.69z"/>
		</g>
		<g>
			<path style="fill:#263238;" d="M422.15,121.467c-0.126,0.105-0.756-0.574-1.767-0.677c-1.01-0.115-1.77,0.415-1.87,0.286
				c-0.051-0.057,0.072-0.283,0.408-0.511c0.329-0.227,0.891-0.427,1.525-0.359c0.634,0.069,1.141,0.385,1.414,0.676
				C422.14,121.175,422.212,121.423,422.15,121.467z"/>
		</g>
		<g>
			<path style="fill:#263238;" d="M423.157,119.509c-0.091,0.146-1.042-0.354-2.31-0.391c-1.268-0.064-2.255,0.357-2.334,0.205
				c-0.098-0.122,0.902-0.858,2.357-0.793C422.327,118.581,423.265,119.396,423.157,119.509z"/>
		</g>
		<g>
			<path style="fill:#263238;" d="M422.328,122.768c0.052-0.007,0.066,0.971-0.735,2.254c-0.756,1.25-2.521,2.764-4.896,2.86
				c-2.377,0.054-4.233-1.348-5.066-2.548c-0.88-1.23-0.928-2.206-0.875-2.203c0.104-0.036,0.3,0.869,1.203,1.947
				c0.86,1.061,2.6,2.267,4.72,2.216c2.118-0.082,3.779-1.394,4.571-2.507C422.083,123.653,422.222,122.739,422.328,122.768z"/>
		</g>
	</g>
	<g>
		<g>
			<path style="fill:#E8505B;" d="M88.217,330.489c-0.26,9.105-7.852,16.276-16.958,16.017c-9.105-0.261-16.276-7.853-16.017-16.958
				c0.26-9.105,7.853-16.276,16.958-16.017C81.307,313.791,88.478,321.384,88.217,330.489z"/>
			<path style="opacity:0.5;fill:#FFFFFF;" d="M88.217,330.489c-0.26,9.105-7.852,16.276-16.958,16.017
				c-9.105-0.261-16.276-7.853-16.017-16.958c0.26-9.105,7.853-16.276,16.958-16.017C81.307,313.791,88.478,321.384,88.217,330.489z
				"/>
		</g>
		<path style="fill:#E8505B;" d="M68.476,325.445c-0.567-0.827-1.732-0.908-2.531-0.363s-1.188,1.212-1.378,2.239
			c-0.133-1.037-0.543-1.727-1.316-2.316c-0.772-0.589-1.949-0.575-2.567,0.218c-0.363,0.465-0.488,1.12-0.425,1.73
			c0.063,0.61,0.217,1.246,0.576,1.71c1.28,1.65,1.994,1.957,3.663,3.151c1.722-1.098,2.272-1.368,3.634-2.943
			c0.382-0.442,0.572-1.068,0.668-1.675C68.896,326.591,68.81,325.93,68.476,325.445z"/>
		<path style="fill:#E8505B;" d="M83.036,325.86c-0.568-0.826-1.732-0.907-2.531-0.362c-0.8,0.544-1.188,1.211-1.379,2.238
			c-0.132-1.036-0.542-1.726-1.315-2.315c-0.773-0.59-1.949-0.575-2.567,0.218c-0.363,0.465-0.488,1.119-0.425,1.729
			c0.062,0.61,0.217,1.247,0.576,1.71c1.279,1.65,1.994,1.958,3.663,3.151c1.722-1.097,2.272-1.368,3.634-2.942
			c0.382-0.442,0.571-1.068,0.668-1.675C83.455,327.007,83.369,326.346,83.036,325.86z"/>
		<path style="fill:#FFFFFF;" d="M77.08,334.047c-0.333,2.689-2.943,4.893-5.65,4.77c-2.707-0.123-5.106-2.554-5.194-5.262
			L77.08,334.047z"/>
	</g>
</g>
<g id="Character_1">
	<g>
		<path style="fill:#B78876;" d="M134.254,332.399c0.29-1.69-0.355-7.87-0.355-7.87s-6.479-0.686-6.872-7.11
			c-0.393-6.425,0-21.241,0-21.241l11.801-5.769l12.98,9.833l-1.966,32.124L134.254,332.399z"/>
		<g>
			<path style="fill:#263238;" d="M128.82,306.918c0,0.454,0.368,0.822,0.822,0.822c0.454,0,0.822-0.368,0.822-0.822
				s-0.368-0.822-0.822-0.822C129.188,306.096,128.82,306.464,128.82,306.918z"/>
			<g>
				<path style="fill:#263238;" d="M127.616,306.327c0.106,0.107,0.714-0.41,1.599-0.458c0.885-0.061,1.55,0.379,1.643,0.26
					c0.045-0.053-0.065-0.248-0.355-0.448c-0.286-0.198-0.768-0.38-1.32-0.346c-0.551,0.033-1.008,0.272-1.268,0.504
					C127.65,306.072,127.564,306.28,127.616,306.327z"/>
			</g>
		</g>
		<g>
			<circle style="fill:#263238;" cx="139.208" cy="306.766" r="0.822"/>
			<g>
				<path style="fill:#263238;" d="M137.181,306.175c0.106,0.106,0.714-0.41,1.599-0.458c0.885-0.06,1.55,0.379,1.643,0.261
					c0.046-0.054-0.064-0.249-0.355-0.448c-0.286-0.199-0.768-0.38-1.32-0.347c-0.551,0.034-1.008,0.272-1.267,0.504
					C137.215,305.92,137.129,306.128,137.181,306.175z"/>
			</g>
		</g>
		<g>
			<path style="fill:#263238;" d="M134.141,313.559c0.002-0.05-0.552-0.116-1.449-0.184c-0.226-0.012-0.446-0.045-0.492-0.209
				c-0.061-0.172,0.026-0.433,0.126-0.713c0.192-0.582,0.395-1.193,0.607-1.835c0.842-2.61,1.447-4.751,1.352-4.782
				c-0.096-0.03-0.855,2.061-1.698,4.671c-0.203,0.645-0.396,1.259-0.58,1.844c-0.077,0.272-0.213,0.584-0.087,0.927
				c0.066,0.171,0.233,0.288,0.378,0.32c0.146,0.038,0.273,0.033,0.384,0.034C133.582,313.634,134.139,313.609,134.141,313.559z"/>
		</g>
		<path style="fill:#FFFFFF;" d="M137.065,314.397c-0.441,0.251-2.539,1.504-4.281,1.474c0,0,1.115,1.602,2.935,0.833
			C137.609,315.905,137.065,314.397,137.065,314.397z"/>
		<path style="fill:#A36957;" d="M133.899,324.529c0,0,4.327,0.048,8.512-2.875c0,0-1.929,4.717-8.372,4.451L133.899,324.529z"/>
		<path style="fill:#263238;" d="M160.344,304.996c0,0,2.613,14.811-9.897,17.485l0.374-17.846L160.344,304.996z"/>
		<path style="fill:#263238;" d="M159.933,301.725c-0.965-3.689-2.508-6.518-4.286-8.687c1.805,0.75,3.042,1.507,3.256,1.259
			c0.123-0.146-0.217-0.691-0.986-1.354c-0.765-0.662-1.983-1.406-3.462-1.89c-0.2-0.066-0.393-0.107-0.59-0.159
			c0.821-0.343,1.581-0.809,2.22-1.432c1.498-1.466,2.173-3.868,1.249-5.75c-0.827-1.683-2.816-2.646-4.681-2.448
			c-1.864,0.197-3.535,1.447-4.444,3.087c-0.219,0.396-0.395,0.812-0.533,1.24c0.03-0.638,0.09-1.353,0.221-2.119
			c0.396-2.475,1.32-4.326,1.172-4.399c-0.109-0.08-1.29,1.728-1.707,4.311c-0.04,0.238-0.065,0.467-0.09,0.696
			c-0.223-0.71-0.471-1.344-0.723-1.869c-0.616-1.294-1.191-1.981-1.358-1.896c-0.354,0.177,0.791,2.883,1.26,6.54
			c-1.584-0.486-2.853-0.643-3.48-0.643c-2.183,0-5.798-1.049-10.927,3.106c-1.531,0.987-3.122,2.38-4.404,4.23
			c-2.005,2.899-2.704,6.118-2.75,8.382c-0.031,1.141,0.06,2.061,0.172,2.686c0.11,0.626,0.214,0.962,0.247,0.956
			c0.102-0.014-0.192-1.395-0.035-3.621c0.088-1.364,0.406-3.066,1.09-4.827c-1.277,4.466,0.487,8.073,0.487,8.073l11.447-1.789
			c-0.737-2.511-0.196-6.49,0.145-8.44c2.02,9.348,10.053,13.845,10.053,13.845l12.049-1.895
			C160.387,305.828,160.187,302.695,159.933,301.725z"/>
		<g>
			<g>
				<path style="fill:#E8505B;" d="M187.651,444.935c0.368,0.182,29.906,5.97,28.817,2.048
					c-1.088-3.923-28.554-10.282-28.554-10.282L187.651,444.935z"/>
				<g>
					<path style="fill:#263238;" d="M201.083,442.326c0.141-0.018,0.345,0.686,0.337,1.576c-0.005,0.892-0.219,1.592-0.359,1.572
						c-0.145-0.021-0.166-0.723-0.162-1.575C200.907,443.047,200.938,442.344,201.083,442.326z"/>
				</g>
				<g>
					<path style="fill:#263238;" d="M199.508,441.786c0.137-0.025,0.388,0.796,0.295,1.833c-0.087,1.038-0.476,1.804-0.606,1.755
						c-0.141-0.047,0.007-0.833,0.087-1.8C199.372,442.609,199.361,441.809,199.508,441.786z"/>
				</g>
				<g>
					<path style="fill:#263238;" d="M197.601,441.625c0.141-0.015,0.34,0.782,0.358,1.783c0.02,1.002-0.148,1.806-0.29,1.796
						c-0.145-0.009-0.21-0.809-0.23-1.786C197.421,442.441,197.456,441.64,197.601,441.625z"/>
				</g>
				<g>
					<path style="fill:#263238;" d="M193.967,438.736c0.004-0.018,0.163,0.002,0.462,0.056c0.3,0.053,0.739,0.143,1.303,0.266
						c1.127,0.247,2.753,0.635,4.745,1.18c1.991,0.545,4.35,1.246,6.937,2.122c1.291,0.445,2.651,0.893,4.032,1.483
						c1.371,0.593,2.778,1.348,3.942,2.482c0.138,0.141,0.309,0.27,0.432,0.536c0.146,0.272-0.003,0.69-0.246,0.825
						c-0.456,0.292-0.883,0.235-1.252,0.277c-0.769,0.061-1.528,0.085-2.274,0.107c-1.492,0.031-2.93-0.021-4.296-0.105
						c-2.732-0.173-5.172-0.518-7.212-0.836c-2.039-0.326-3.679-0.64-4.811-0.865c-0.514-0.109-0.943-0.2-1.3-0.275
						c-0.296-0.068-0.45-0.113-0.447-0.131c0.006-0.036,0.64,0.041,1.781,0.206c1.225,0.178,2.855,0.414,4.831,0.701
						c2.04,0.271,4.474,0.576,7.187,0.722c1.356,0.07,2.781,0.112,4.256,0.073c0.737-0.023,1.488-0.051,2.247-0.112
						c0.381-0.028,0.779-0.03,0.987-0.184c0.092-0.072,0.096-0.11,0.068-0.201c-0.037-0.096-0.173-0.23-0.314-0.363
						c-1.096-1.07-2.443-1.803-3.783-2.389c-1.345-0.583-2.703-1.041-3.984-1.498c-2.57-0.897-4.909-1.633-6.882-2.222
						c-1.974-0.588-3.581-1.029-4.692-1.337C194.572,438.947,193.958,438.773,193.967,438.736z"/>
				</g>
				<g>
					<path style="fill:#263238;" d="M209.688,443.133c0.146,0.048-0.15,1.166-0.043,2.55c0.087,1.385,0.535,2.45,0.397,2.519
						c-0.111,0.076-0.818-0.972-0.917-2.482C209.014,444.209,209.567,443.073,209.688,443.133z"/>
				</g>
			</g>
			<g>
				<path style="fill:#E8505B;" d="M89.949,439.087c-0.406-0.051-30.217,4.114-27.908,7.467c2.309,3.352,30.346,0.403,30.346,0.403
					L89.949,439.087z"/>
				<g>
					<path style="fill:#263238;" d="M78.103,445.935c-0.126,0.064-0.549-0.535-0.833-1.38c-0.286-0.844-0.312-1.576-0.173-1.603
						c0.143-0.028,0.392,0.629,0.667,1.436C78.035,445.198,78.234,445.872,78.103,445.935z"/>
				</g>
				<g>
					<path style="fill:#263238;" d="M79.768,445.933c-0.121,0.068-0.626-0.626-0.877-1.636c-0.256-1.01-0.139-1.86,0-1.857
						c0.148-0.001,0.265,0.791,0.505,1.73C79.628,445.11,79.899,445.864,79.768,445.933z"/>
				</g>
				<g>
					<path style="fill:#263238;" d="M81.623,445.463c-0.129,0.061-0.577-0.628-0.921-1.568c-0.346-0.94-0.448-1.755-0.311-1.793
						c0.14-0.038,0.462,0.696,0.8,1.613C81.526,444.633,81.755,445.401,81.623,445.463z"/>
				</g>
				<g>
					<path style="fill:#263238;" d="M86.001,447.009c0.002,0.018-0.155,0.051-0.455,0.098c-0.3,0.048-0.745,0.106-1.318,0.174
						c-1.146,0.135-2.809,0.298-4.87,0.434c-2.061,0.134-4.519,0.24-7.25,0.257c-1.365,0-2.797,0.021-4.295-0.088
						c-1.489-0.113-3.065-0.367-4.537-1.061c-0.176-0.087-0.38-0.153-0.583-0.365c-0.226-0.209-0.222-0.653-0.037-0.86
						c0.336-0.425,0.758-0.511,1.093-0.67c0.707-0.309,1.417-0.58,2.114-0.843c1.4-0.517,2.776-0.937,4.095-1.302
						c2.64-0.728,5.059-1.198,7.091-1.563c2.034-0.357,3.687-0.596,4.83-0.752c0.522-0.064,0.956-0.119,1.319-0.164
						c0.302-0.031,0.462-0.039,0.465-0.022c0.006,0.036-0.619,0.17-1.751,0.386c-1.215,0.232-2.833,0.54-4.794,0.914
						c-2.017,0.409-4.417,0.914-7.029,1.662c-1.305,0.375-2.666,0.801-4.047,1.318c-0.689,0.264-1.39,0.534-2.087,0.84
						c-0.352,0.151-0.727,0.282-0.873,0.495c-0.063,0.099-0.055,0.136,0.001,0.213c0.065,0.079,0.239,0.161,0.416,0.24
						c1.385,0.654,2.897,0.907,4.355,1.023c1.462,0.113,2.895,0.104,4.255,0.116c2.722,0.011,5.173-0.058,7.23-0.145
						c2.058-0.088,3.722-0.195,4.872-0.268C85.36,447.007,85.997,446.971,86.001,447.009z"/>
				</g>
				<g>
					<path style="fill:#263238;" d="M69.705,447.98c-0.153,0.003-0.239-1.15-0.791-2.424c-0.534-1.281-1.306-2.143-1.198-2.251
						c0.081-0.108,1.09,0.651,1.677,2.048C69.992,446.743,69.839,447.998,69.705,447.98z"/>
				</g>
			</g>
			<path style="fill:#455A64;" d="M182.429,402.901h-15.17l-55.985,1.447l-15.959-2.072c-2.497-0.546-4.135-0.776-4.661-0.604
				c-1.55,0.506-3.666,1.999-5.469,4.153c-6.103,7.287-2.266,18.508,6.911,20.989l8.626,2.333l-18.866,6.061l6.374,18.079
				c0,0,28.159-6.089,55.469-12.518l43.705,11.819l6.298-20.287c0,0-2.778-0.91-7.409-2.414c4.645-1.415,7.59-2.54,8.023-3.214
				C197.058,422.408,201.934,402.597,182.429,402.901"/>
			<polygon style="opacity:0.2;" points="186.004,429.976 153.523,443.426 143.699,440.768 			"/>
			<polygon style="opacity:0.2;" points="100.805,404.415 142.392,416.326 174.058,405.527 			"/>
			<g>
				<path style="fill:#263238;" d="M94.886,451.973c-0.063,0.028-0.58-0.966-1.323-2.616c-0.743-1.649-1.7-3.96-2.648-6.555
					c-0.946-2.595-1.701-4.979-2.195-6.72c-0.495-1.741-0.739-2.834-0.673-2.854c0.072-0.021,0.441,1.035,1.024,2.743
					c0.583,1.708,1.391,4.066,2.334,6.652c0.944,2.585,1.844,4.908,2.498,6.591C94.557,450.897,94.954,451.942,94.886,451.973z"/>
			</g>
			<g>
				<path style="fill:#263238;" d="M195.128,409.64c0.003,0.009-0.085,0.048-0.26,0.115c-0.204,0.075-0.46,0.169-0.779,0.287
					c-0.725,0.254-1.733,0.607-3.013,1.057c-2.663,0.902-6.453,2.186-11.12,3.768c-9.402,3.143-22.422,7.393-36.854,11.923
					c-14.437,4.53-27.551,8.483-37.063,11.276c-4.734,1.369-8.577,2.48-11.278,3.262c-1.307,0.362-2.335,0.648-3.076,0.854
					c-0.329,0.086-0.594,0.155-0.804,0.21c-0.182,0.044-0.276,0.063-0.279,0.054c-0.002-0.009,0.087-0.044,0.264-0.105
					c0.205-0.067,0.465-0.152,0.788-0.259c0.733-0.227,1.754-0.545,3.048-0.948c2.69-0.818,6.517-1.984,11.23-3.419
					c9.484-2.883,22.579-6.892,37.013-11.421c14.429-4.529,27.464-8.722,36.895-11.775c4.688-1.516,8.495-2.745,11.17-3.61
					c1.293-0.409,2.311-0.732,3.043-0.964c0.326-0.098,0.588-0.176,0.795-0.238C195.031,409.653,195.125,409.631,195.128,409.64z"/>
			</g>
			<g>
				<path style="fill:#263238;" d="M164.852,408.909c0.006,0.018-0.214,0.11-0.639,0.272c-0.476,0.175-1.094,0.401-1.864,0.684
					c-1.624,0.58-3.98,1.398-6.899,2.388c-5.837,1.982-13.926,4.641-22.882,7.51c-8.96,2.866-17.09,5.399-22.993,7.177
					c-2.951,0.89-5.344,1.592-7.003,2.063c-0.79,0.218-1.426,0.393-1.914,0.526c-0.439,0.115-0.672,0.167-0.678,0.149
					c-0.005-0.017,0.218-0.103,0.647-0.25c0.481-0.158,1.107-0.363,1.885-0.619c1.7-0.543,4.061-1.297,6.952-2.221
					c5.923-1.89,14.008-4.47,22.943-7.321c8.927-2.867,17.006-5.462,22.925-7.363c2.891-0.928,5.251-1.685,6.95-2.23
					c0.783-0.244,1.412-0.44,1.895-0.591C164.614,408.952,164.846,408.892,164.852,408.909z"/>
			</g>
			<g>
				<path style="fill:#263238;" d="M142.18,416.259c-0.04,0.138-9.335-2.401-20.758-5.672c-11.427-3.271-20.656-6.034-20.617-6.172
					c0.04-0.139,9.333,2.4,20.76,5.672C132.989,413.356,142.219,416.12,142.18,416.259z"/>
			</g>
			<g>
				<path style="fill:#263238;" d="M187.592,430.943c0.134,0.053-1.469,4.504-3.581,9.942c-2.112,5.439-3.932,9.806-4.066,9.754
					c-0.134-0.052,1.469-4.503,3.581-9.942C185.638,435.259,187.458,430.892,187.592,430.943z"/>
			</g>
			<g>
				<path style="fill:#263238;" d="M183.694,439.316c-0.037,0.139-3.697-0.717-8.173-1.91c-4.478-1.193-8.077-2.273-8.04-2.412
					c0.037-0.139,3.696,0.716,8.174,1.909C180.131,438.097,183.731,439.177,183.694,439.316z"/>
			</g>
			<g>
				<path style="fill:#263238;" d="M121.493,422.735c-0.01,0.035-0.561-0.077-1.551-0.308c-1.077-0.266-2.483-0.611-4.178-1.028
					c-3.519-0.899-8.389-2.12-13.705-3.72c-5.32-1.591-10.033-3.38-13.345-4.89c-1.656-0.757-2.972-1.42-3.865-1.906
					c-0.892-0.491-1.376-0.777-1.359-0.81c0.017-0.031,0.533,0.194,1.45,0.629c0.92,0.429,2.254,1.039,3.922,1.749
					c3.337,1.418,8.043,3.143,13.349,4.729c5.3,1.596,10.153,2.872,13.649,3.862c1.678,0.482,3.07,0.883,4.135,1.189
					C120.968,422.523,121.502,422.701,121.493,422.735z"/>
			</g>
		</g>
		<g>
			<g>
				<path style="fill:#E8505B;" d="M152.23,331.506l-1.259,0.016l-0.182-4.261l-16.89,1.028c0,0,0.174,2.021,0.156,3.393
					c-10.395,1.028-27.066,6.335-27.464,29.753l13.343,0.304c-1.137,10.739-0.962,17.154-2.09,21.186
					c-1.863,6.66-7.759,20.712-6.571,21.425c1.187,0.713,55.916,1.726,58.529,0.3c2.612-1.425-2.142-19.764-3.33-24.75
					c-0.755-3.175-0.913-10.463-0.932-16.093l15.321-0.684C180.862,363.122,181.948,331.42,152.23,331.506z"/>
				<g>
					<path style="fill:#263238;" d="M150.907,331.341c0.007,0.068-0.938,0.245-2.48,0.423c-1.542,0.178-3.684,0.343-6.054,0.393
						c-2.37,0.049-4.517-0.026-6.065-0.14c-1.549-0.112-2.501-0.25-2.496-0.319c0.005-0.074,0.964-0.067,2.511-0.049
						c1.546,0.019,3.682,0.036,6.039-0.013c2.357-0.05,4.489-0.156,6.034-0.239C149.94,331.313,150.898,331.266,150.907,331.341z"/>
				</g>
				<g>
					<path style="fill:#263238;" d="M136.952,328.106c0.144,0,0.26,0.823,0.26,1.838c0,1.015-0.116,1.838-0.26,1.838
						c-0.144,0-0.26-0.823-0.26-1.838C136.692,328.93,136.809,328.106,136.952,328.106z"/>
				</g>
				<g>
					<path style="fill:#263238;" d="M141.47,327.787c0.143-0.004,0.284,0.899,0.314,2.018c0.029,1.118-0.064,2.027-0.208,2.031
						c-0.143,0.003-0.284-0.9-0.313-2.018C141.234,328.7,141.327,327.791,141.47,327.787z"/>
				</g>
				<g>
					<path style="fill:#263238;" d="M146.126,327.626c0.142-0.014,0.343,0.888,0.366,2.018c0.025,1.13-0.137,2.039-0.279,2.031
						c-0.146-0.007-0.217-0.911-0.242-2.021C145.949,328.546,145.982,327.64,146.126,327.626z"/>
				</g>
				<g>
					<path style="fill:#263238;" d="M149.511,327.468c0.146,0.001,0.253,0.88,0.392,1.951c0.134,1.072,0.249,1.95,0.108,1.988
						c-0.136,0.038-0.485-0.811-0.624-1.923C149.243,328.373,149.37,327.465,149.511,327.468z"/>
				</g>
				<g>
					<path style="fill:#263238;" d="M122.069,361.446c-0.144,0.001-0.279-2.25-0.302-5.027c-0.023-2.778,0.075-5.031,0.219-5.033
						c0.144-0.001,0.279,2.25,0.302,5.028C122.311,359.192,122.213,361.445,122.069,361.446z"/>
				</g>
				<g>
					<path style="fill:#263238;" d="M165.019,363.122c-0.143,0.013-0.464-2.407-0.715-5.402c-0.252-2.997-0.34-5.436-0.197-5.447
						c0.144-0.013,0.464,2.406,0.715,5.403C165.074,360.672,165.162,363.11,165.019,363.122z"/>
				</g>
			</g>
			<g>
				<path style="fill:#263238;" d="M122.069,361.446c-0.004,0.073-0.881,0.083-2.294,0.071c-1.613-0.012-3.469-0.025-5.517-0.041
					c-2.049,0.01-3.905,0.02-5.518,0.027c-1.413,0.008-2.289-0.005-2.293-0.078c-0.004-0.07,0.866-0.188,2.279-0.29
					c1.413-0.103,3.37-0.183,5.533-0.18c2.162,0.003,4.119,0.088,5.532,0.194C121.203,361.256,122.073,361.376,122.069,361.446z"/>
			</g>
			<g>
				<path style="fill:#263238;" d="M180.862,363.122c0,0.144-3.652,0.261-8.157,0.261c-4.506,0-8.157-0.117-8.157-0.261
					c0-0.144,3.651-0.26,8.157-0.26C177.21,362.862,180.862,362.978,180.862,363.122z"/>
			</g>
		</g>
		<path style="fill:#B78876;" d="M180.186,363.25c0,0,3.992,37.331-7.44,41.004c-11.433,3.671-34.016-13.717-34.016-13.717
			l6.503-13.155c0,0,15.042,10.419,18.241,8.073c3.199-2.346,1.545-22.205,1.545-22.205H180.186z"/>
		<path style="fill:#B78876;" d="M106.807,361.446c0,0-4.07,36.957,7.363,40.63c11.433,3.671,34.016-13.717,34.016-13.717
			l-6.504-13.155c0,0-15.088,9.642-18.217,7.202c-1.81-1.412-1.863-20.768-1.863-20.768
			C116.261,361.411,111.334,361.183,106.807,361.446z"/>
		<g>
			<g>
				<path style="fill:#263238;" d="M173.075,369.153l-7.59,37.196c0,0-46.645-0.359-47.13-0.503
					c-0.485-0.141-4.983-36.693-4.983-36.693H173.075z"/>
				<path style="fill:#FFFFFF;" d="M139.574,387.994c0,1.442,1.251,2.612,2.794,2.612c1.544,0,2.795-1.17,2.795-2.612
					c0-1.441-1.251-2.61-2.795-2.61C140.826,385.384,139.574,386.553,139.574,387.994z"/>
			</g>
		</g>
		<g>
			<path style="fill:#B78876;" d="M149.369,306.384c0.522-0.515,2.241-0.603,2.837-0.177c0.596,0.426,0.921,1.145,1.063,1.863
				c0.233,1.188-0.009,2.515-0.845,3.39c-0.836,0.875-2.313,1.151-3.299,0.449"/>
			<g>
				<path style="fill:#A36957;" d="M150.575,310.89c-0.007-0.082,0.311-0.134,0.686-0.41c0.375-0.266,0.765-0.812,0.691-1.495
					c-0.054-0.686-0.538-1.15-0.955-1.342c-0.419-0.203-0.742-0.195-0.751-0.277c-0.017-0.061,0.321-0.227,0.881-0.084
					c0.539,0.111,1.297,0.724,1.364,1.653c0.105,0.926-0.527,1.666-1.036,1.875C150.932,311.053,150.569,310.953,150.575,310.89z"/>
			</g>
		</g>
	</g>
</g>
<g id="Character_2">
	<g>
		<g>
			<g>
				<path style="fill:#E8505B;" d="M380.6,435.922l-1.947-10.565l-18.957,3.363l2.756,15.829l1.19-0.13
					c5.285-0.625,26.76-3.908,30.06-5.636C397.381,436.854,380.6,435.922,380.6,435.922z"/>
			</g>
			<g>
				<g>
					<path style="fill:#263238;" d="M393.97,437.733c0.033,0.177-7.023,1.627-15.757,3.237c-8.737,1.61-15.844,2.771-15.877,2.594
						c-0.033-0.177,7.021-1.627,15.758-3.237C386.829,438.717,393.938,437.556,393.97,437.733z"/>
				</g>
			</g>
			<g>
				<g>
					<path style="fill:#263238;" d="M381.331,438.017c-0.171-0.053-0.14-0.636,0.165-1.261c0.304-0.627,0.745-1.012,0.891-0.91
						c0.151,0.104-0.023,0.616-0.303,1.195C381.802,437.618,381.504,438.072,381.331,438.017z"/>
				</g>
			</g>
			<g>
				<g>
					<path style="fill:#263238;" d="M382.667,438.49c-0.176-0.031-0.206-0.673,0.045-1.4c0.249-0.729,0.669-1.215,0.826-1.132
						c0.162,0.085,0.023,0.667-0.207,1.345C383.096,437.978,382.846,438.524,382.667,438.49z"/>
				</g>
			</g>
			<g>
				<g>
					<path style="fill:#263238;" d="M368.027,442.442c-0.064,0.066-0.397-0.16-0.893-0.55c-0.497-0.386-1.158-0.938-1.967-1.357
						c-0.804-0.419-1.629-0.552-2.214-0.518c-0.589,0.029-0.951,0.189-1,0.102c-0.046-0.064,0.257-0.392,0.932-0.559
						c0.664-0.17,1.661-0.09,2.581,0.393c0.915,0.476,1.562,1.126,1.987,1.604C367.876,442.041,368.09,442.379,368.027,442.442z"/>
				</g>
			</g>
			<g>
				<g>
					<path style="fill:#263238;" d="M381.022,436.02c0.12,0.133-0.137,0.56-0.641,0.856c-0.503,0.3-1.001,0.319-1.06,0.15
						c-0.061-0.172,0.285-0.448,0.726-0.712C380.49,436.053,380.9,435.884,381.022,436.02z"/>
				</g>
			</g>
			<g>
				<g>
					<path style="fill:#263238;" d="M380.536,435.054c0.05,0.174-0.427,0.419-1.064,0.545c-0.638,0.126-1.171,0.082-1.192-0.097
						c-0.02-0.18,0.457-0.424,1.065-0.545C379.953,434.837,380.487,434.88,380.536,435.054z"/>
				</g>
			</g>
		</g>
		<path style="fill:#263238;" d="M403.401,324.272c-5.875-11.853-37.333-57.687-37.333-57.687l-16.792,1.752l-0.02-0.098
			l-18.79,2.06h-0.004l0,0l-10.365,1.137l37.514,163.831l25.938-0.469l-6.24-30.307
			C381.628,393.742,406.652,330.828,403.401,324.272z M376.642,331.34l-9.269,24.888l-10.506-51.028L376.642,331.34z"/>
		<g>
			<g>
				<path style="fill:#FFBE9D;" d="M355.829,190.911c-0.237-1.708,0.682-8.819,0.682-8.819s6.534-0.48,7.137-6.925
					c0.603-6.445,0.686-21.35,0.686-21.35l-11.675-6.18l-13.365,9.465l-3.462,8.995l4.554,11.181l-0.136,3.704l-0.016,8.473
					L355.829,190.911z"/>
				<g>
					<g>
						<path style="fill:#263238;" d="M363.461,164.622c-0.014,0.457-0.397,0.815-0.853,0.8c-0.457-0.015-0.815-0.397-0.8-0.854
							c0.015-0.456,0.396-0.814,0.853-0.8C363.118,163.783,363.476,164.165,363.461,164.622z"/>
						<g>
							<path style="fill:#263238;" d="M363.518,163.755c-0.11,0.104-0.704-0.436-1.592-0.512c-0.887-0.089-1.57,0.331-1.66,0.208
								c-0.043-0.055,0.073-0.248,0.372-0.439c0.293-0.19,0.784-0.357,1.337-0.305c0.553,0.052,1.005,0.306,1.258,0.547
								C363.491,163.497,363.57,163.709,363.518,163.755z"/>
						</g>
					</g>
					<g>
						<path style="fill:#263238;" d="M353.019,163.611c0.368,0.27,0.448,0.787,0.178,1.156c-0.27,0.368-0.787,0.448-1.156,0.178
							c-0.368-0.27-0.448-0.787-0.178-1.156C352.133,163.421,352.65,163.341,353.019,163.611z"/>
						<g>
							<path style="fill:#263238;" d="M353.653,163.438c-0.11,0.104-0.704-0.436-1.592-0.511c-0.887-0.09-1.57,0.33-1.659,0.208
								c-0.044-0.055,0.073-0.248,0.372-0.439c0.293-0.191,0.784-0.357,1.337-0.306c0.553,0.052,1.004,0.306,1.258,0.547
								C353.627,163.181,353.706,163.393,353.653,163.438z"/>
						</g>
					</g>
					<g>
						<path style="fill:#263238;" d="M356.622,171.058c0-0.05,0.559-0.099,1.462-0.137c0.227-0.004,0.451-0.03,0.503-0.195
							c0.067-0.171-0.012-0.437-0.103-0.722c-0.175-0.591-0.358-1.212-0.551-1.864c-0.762-2.651-1.302-4.822-1.206-4.85
							c0.048-0.014,0.246,0.511,0.527,1.37c0.281,0.859,0.646,2.054,1.027,3.379c0.183,0.655,0.357,1.279,0.523,1.872
							c0.068,0.277,0.195,0.594,0.058,0.934c-0.072,0.169-0.243,0.281-0.389,0.309c-0.147,0.033-0.275,0.025-0.387,0.022
							C357.181,171.149,356.622,171.107,356.622,171.058z"/>
					</g>
				</g>
				<path style="fill:#FFFFFF;" d="M353.655,171.805c-0.881-0.626,2.439,1.561,4.255,1.62c0,0-1.172,1.574-2.977,0.743
					C353.06,173.304,353.655,171.805,353.655,171.805z"/>
				<path style="fill:#EB996E;" d="M356.51,182.092c0,0-4.351-0.091-8.463-3.164c0,0,1.787,4.804,8.271,4.744L356.51,182.092z"/>
			</g>
			<g>
				<path style="fill:#EB996E;" d="M341.148,167.899c-0.025-0.016-0.092,0.073-0.249,0.157c-0.154,0.082-0.422,0.148-0.716,0.058
					c-0.594-0.178-1.139-1.071-1.226-2.061c-0.044-0.5,0.032-0.983,0.186-1.389c0.143-0.413,0.387-0.71,0.676-0.779
					c0.287-0.085,0.505,0.078,0.582,0.229c0.083,0.149,0.055,0.261,0.084,0.269c0.017,0.013,0.113-0.099,0.055-0.324
					c-0.029-0.107-0.102-0.233-0.237-0.332c-0.139-0.099-0.336-0.142-0.539-0.108c-0.422,0.055-0.781,0.469-0.95,0.914
					c-0.192,0.448-0.289,0.992-0.239,1.553c0.103,1.106,0.733,2.11,1.543,2.292c0.393,0.078,0.708-0.059,0.868-0.199
					C341.146,168.033,341.168,167.908,341.148,167.899z"/>
			</g>
			<path style="fill:#E8505B;" d="M366.036,154.891c-0.385,0.134-0.75,0.189-1.085,0.206c1.204-0.641,2.228-1.624,2.872-2.827
				c0.905-1.689,1.032-3.871-0.008-5.481c-1.04-1.61-3.36-2.374-5.012-1.402c0.797-1.317,0.164-3.172-1.11-4.035
				c-1.275-0.863-2.978-0.871-4.441-0.392c-1.463,0.479-2.741,1.387-3.994,2.281c-0.138-1.037-0.89-1.931-1.825-2.399
				c-0.935-0.468-2.029-0.548-3.064-0.393c-3.002,0.451-5.574,2.981-6.072,5.976c-0.936-0.966-2.392-1.398-3.703-1.096
				c-1.311,0.301-2.433,1.323-2.854,2.601c-0.016,0.047-0.023,0.095-0.037,0.142c-0.546,0.234-1.083,0.646-1.443,1.254
				c-0.543,0.865-0.713,2.094-0.312,3.205c0.364,1.119,1.211,1.965,1.976,2.512c0.371,0.29,0.696,0.572,0.913,0.889
				c0.208,0.305,0.31,0.643,0.352,0.965c-0.085,2.163-1.191,4.201-1.727,6.328c-0.739,2.935,0.891,6.95,1.83,9.827
				c0.939,2.877,1.268,4.034,3.093,4.228l0.286-7.742c-2.018,1.643-4.667-4.002-2.919-6.247c1.75-2.247,3.609-1.479,3.93-0.057
				c0.214,0.948,0.466,1.611,0.466,1.611h2.028l-0.218-1.697c0,0-0.409-7.511,3.184-7.972c1.267-0.162,1.564-0.043,2.717,0.507
				c1.153,0.55,2.374,0.551,3.65,0.506c1.277-0.044,3.004-1.454,2.957-2.731c1.445,1.714,3.764,2.649,5.994,2.416
				c0.58-0.061,1.148-0.204,1.692-0.411c0.518,0.159,1.279,0.198,2.055-0.057c0.802-0.267,1.411-0.777,1.723-1.225
				c0.319-0.449,0.379-0.791,0.32-0.816C368.118,153.287,367.481,154.439,366.036,154.891z M336.24,154.654
				c-0.755-0.579-1.443-1.304-1.778-2.3c-0.349-0.973-0.216-2.009,0.229-2.775c0.234-0.415,0.55-0.729,0.893-0.956
				c-0.341,2.27,1.139,4.569,1.528,6.935C336.872,155.221,336.565,154.925,336.24,154.654z"/>
		</g>
		<path style="fill:#E8505B;" d="M400.376,164.283v12.883c0,2.923,2.37,5.293,5.293,5.293h22.3v7.369l4.003-7.044l0,0
			c2.459-0.183,4.36-2.231,4.36-4.697v-13.804c0-2.923-2.37-5.294-5.293-5.294h-25.37
			C402.747,158.99,400.376,161.36,400.376,164.283z"/>
		<path style="fill:#FFFFFF;" d="M412.529,171.414c0,1.204-0.976,2.18-2.18,2.18c-1.204,0-2.179-0.976-2.179-2.18
			s0.976-2.179,2.179-2.179C411.553,169.235,412.529,170.21,412.529,171.414z"/>
		<path style="fill:#FFFFFF;" d="M420.808,171.414c0,1.204-0.976,2.18-2.18,2.18s-2.179-0.976-2.179-2.18s0.976-2.179,2.179-2.179
			S420.808,170.21,420.808,171.414z"/>
		<path style="fill:#FFFFFF;" d="M429.086,171.414c0,1.204-0.976,2.18-2.18,2.18c-1.204,0-2.179-0.976-2.179-2.18
			s0.976-2.179,2.179-2.179C428.11,169.235,429.086,170.21,429.086,171.414z"/>
		<g>
			<path style="fill:#455A64;" d="M417.996,202.59c-0.441-1.018-28.849,24.075-34.503,24.927l-16.565-21.573
				c0,0-3.442-5.456-10.823-14.796c-4.765-6.029-17.914-4.777-21.371,2.568c-5.872,12.477-6.077,29.046-10.61,55.566l-3.847,22.524
				c-0.014,0.042,5.669-0.662,5.655-0.62l40.316-4.23l1.001-26.953c7.968,8.076,10.443,9.765,14.59,9.122
				c10.429-1.615,46.919-34.439,46.919-34.439S418.437,203.608,417.996,202.59z"/>
			<g>
				<path style="fill:#263238;" d="M423.844,219.284c-0.042,0.051-0.845-0.528-2.045-1.584c-1.2-1.054-2.781-2.605-4.364-4.462
					c-1.582-1.86-2.86-3.669-3.71-5.021c-0.851-1.353-1.294-2.238-1.237-2.272c0.066-0.04,0.62,0.775,1.543,2.066
					c0.922,1.292,2.234,3.047,3.801,4.889c1.568,1.84,3.091,3.415,4.219,4.532C423.177,218.548,423.894,219.225,423.844,219.284z"/>
			</g>
			<g>
				<path style="fill:#263238;" d="M381.883,236.067c-0.142-0.025,0.084-1.96,0.503-4.32c0.42-2.361,0.875-4.254,1.016-4.229
					c0.142,0.025-0.083,1.959-0.503,4.32C382.48,234.199,382.025,236.092,381.883,236.067z"/>
			</g>
			<g>
				<path style="fill:#263238;" d="M385.5,235.178c-0.139,0.037-0.709-1.621-1.273-3.704c-0.564-2.084-0.909-3.802-0.77-3.84
					s0.708,1.62,1.273,3.704C385.294,233.42,385.639,235.14,385.5,235.178z"/>
			</g>
			<polygon style="opacity:0.2;" points="345.838,211.668 366.826,251.352 367.3,239.581 			"/>
			<g>
				<path style="fill:#263238;" d="M344.481,209.738c0.029-0.021,0.372,0.407,0.966,1.198c0.647,0.868,1.489,1.998,2.502,3.356
					c2.111,2.836,5.06,6.726,8.369,10.985c3.293,4.217,6.271,8.03,8.504,10.889c1.033,1.346,1.891,2.463,2.55,3.322
					c0.593,0.792,0.908,1.24,0.88,1.263c-0.028,0.022-0.396-0.383-1.038-1.136c-0.693-0.832-1.595-1.915-2.68-3.219
					c-2.244-2.734-5.314-6.537-8.628-10.8c-3.31-4.263-6.218-8.194-8.255-11.088c-1.02-1.446-1.829-2.627-2.37-3.456
					C344.738,210.226,344.452,209.759,344.481,209.738z"/>
			</g>
			<g>
				<path style="fill:#263238;" d="M345.14,222.141c-0.043,0.009-0.175-0.43-0.372-1.216c-0.198-0.786-0.461-1.919-0.768-3.301
					l0.307,0.144c-1.225,0.669-2.622,1.431-4.123,2.251l-0.28,0.153l-0.088-0.31c-0.155-0.545-0.316-1.113-0.481-1.692
					c-0.25-0.894-0.492-1.761-0.724-2.591l0.37,0.15c-1.502,0.846-2.875,1.619-4.065,2.289l-0.25,0.141l-0.04-0.277
					c-0.328-2.293-0.492-3.726-0.416-3.738c0.076-0.013,0.378,1.398,0.8,3.675l-0.289-0.137c1.173-0.7,2.526-1.507,4.007-2.39
					l0.279-0.167l0.09,0.317c0.237,0.829,0.484,1.694,0.738,2.587c0.163,0.58,0.322,1.149,0.475,1.694l-0.368-0.157
					c1.517-0.79,2.928-1.525,4.165-2.17l0.255-0.133l0.052,0.277c0.26,1.39,0.463,2.536,0.59,3.337
					C345.131,221.678,345.183,222.133,345.14,222.141z"/>
			</g>
			<g>
				<path style="fill:#263238;" d="M350.066,199.712c-0.024,0.036-0.424-0.188-1.113-0.616c-0.689-0.428-1.666-1.059-2.846-1.839
					l0.32-0.109c-0.415,1.332-0.89,2.851-1.399,4.484l-0.095,0.305l-0.279-0.162c-0.49-0.284-1.001-0.58-1.522-0.882
					c-0.801-0.469-1.578-0.924-2.322-1.36l0.37-0.149c-0.492,1.653-0.941,3.163-1.331,4.472l-0.082,0.275l-0.221-0.172
					c-1.83-1.42-2.944-2.336-2.897-2.398c0.046-0.062,1.243,0.742,3.129,2.086l-0.303,0.102c0.357-1.318,0.768-2.839,1.219-4.503
					l0.086-0.314l0.285,0.165c0.747,0.432,1.525,0.882,2.329,1.346c0.52,0.304,1.03,0.602,1.519,0.888l-0.374,0.143
					c0.541-1.623,1.044-3.132,1.486-4.456l0.091-0.273l0.23,0.163c1.154,0.819,2.096,1.502,2.744,1.989
					C349.737,199.384,350.091,199.676,350.066,199.712z"/>
			</g>
			<g>
				<path style="fill:#E0E0E0;" d="M364.796,207.415c-0.032,0.029-0.373-0.276-0.951-0.844c-0.578-0.568-1.394-1.398-2.375-2.418
					l0.337-0.037c-0.697,1.209-1.492,2.587-2.347,4.069l-0.16,0.277l-0.237-0.219c-0.416-0.384-0.85-0.785-1.292-1.194
					c-0.679-0.633-1.337-1.247-1.968-1.835l0.394-0.065c-0.842,1.505-1.611,2.88-2.277,4.072l-0.14,0.25l-0.178-0.216
					c-1.474-1.787-2.361-2.924-2.302-2.974c0.059-0.051,1.051,0.996,2.597,2.72l-0.318,0.034c0.637-1.208,1.371-2.602,2.175-4.128
					l0.152-0.288l0.242,0.224c0.634,0.585,1.296,1.194,1.978,1.824c0.441,0.41,0.874,0.813,1.288,1.199l-0.396,0.058
					c0.883-1.465,1.704-2.827,2.425-4.023l0.148-0.246l0.188,0.21c0.947,1.051,1.717,1.924,2.242,2.541
					C364.547,207.024,364.828,207.386,364.796,207.415z"/>
			</g>
			<g>
				<path style="fill:#263238;" d="M403.637,232.675c-0.035,0.026-0.335-0.32-0.837-0.957c-0.503-0.636-1.207-1.563-2.053-2.697
					l0.339,0.006c-0.844,1.112-1.805,2.379-2.839,3.742l-0.193,0.255l-0.208-0.247c-0.365-0.434-0.745-0.886-1.132-1.347
					c-0.594-0.713-1.17-1.405-1.722-2.068l0.399-0.015c-1.024,1.387-1.96,2.655-2.771,3.754l-0.17,0.23l-0.15-0.237
					c-1.238-1.958-1.975-3.197-1.911-3.24c0.065-0.043,0.918,1.12,2.235,3.025l-0.32-0.006c0.783-1.118,1.687-2.409,2.676-3.821
					l0.187-0.267l0.212,0.252c0.555,0.66,1.135,1.348,1.733,2.058c0.386,0.462,0.765,0.916,1.127,1.351l-0.4,0.008
					c1.061-1.343,2.046-2.591,2.912-3.687l0.178-0.226l0.161,0.232c0.807,1.162,1.461,2.124,1.905,2.803
					C403.439,232.255,403.672,232.649,403.637,232.675z"/>
			</g>
			<g>
				<path style="fill:#E0E0E0;" d="M379.592,230.645c-0.028,0.033-0.403-0.23-1.043-0.727c-0.641-0.496-1.548-1.225-2.642-2.122
					l0.33-0.076c-0.551,1.282-1.179,2.744-1.854,4.316l-0.126,0.294l-0.261-0.189c-0.459-0.333-0.937-0.68-1.424-1.034
					c-0.748-0.549-1.474-1.082-2.169-1.592l0.384-0.11c-0.66,1.593-1.262,3.049-1.785,4.311l-0.11,0.265l-0.203-0.194
					c-1.673-1.602-2.687-2.627-2.635-2.685c0.052-0.057,1.16,0.867,2.898,2.398l-0.312,0.071c0.491-1.274,1.057-2.745,1.677-4.354
					l0.117-0.304l0.267,0.193c0.698,0.506,1.427,1.035,2.178,1.58c0.486,0.356,0.962,0.705,1.419,1.04l-0.387,0.104
					c0.706-1.559,1.362-3.008,1.938-4.279l0.119-0.262l0.212,0.186c1.064,0.933,1.93,1.71,2.525,2.261
					C379.299,230.286,379.62,230.612,379.592,230.645z"/>
			</g>
			<g>
				<path style="fill:#E0E0E0;" d="M414.009,225.011c-0.043,0.005-0.134-0.444-0.257-1.245c-0.124-0.801-0.281-1.955-0.458-3.358
					l0.292,0.172c-1.282,0.552-2.743,1.182-4.314,1.858l-0.294,0.126l-0.059-0.317c-0.104-0.557-0.211-1.138-0.322-1.73
					c-0.165-0.913-0.326-1.799-0.479-2.647l0.354,0.184c-1.574,0.703-3.013,1.345-4.26,1.902l-0.262,0.117l-0.014-0.28
					c-0.113-2.313-0.143-3.755-0.066-3.76c0.077-0.006,0.246,1.427,0.455,3.733l-0.275-0.163c1.232-0.587,2.655-1.266,4.211-2.007
					l0.294-0.14l0.06,0.324c0.159,0.848,0.324,1.732,0.495,2.645c0.108,0.593,0.214,1.174,0.315,1.731l-0.352-0.19
					c1.584-0.646,3.057-1.247,4.35-1.774l0.266-0.108l0.026,0.281c0.13,1.409,0.226,2.568,0.277,3.377
					C414.044,224.549,414.053,225.006,414.009,225.011z"/>
			</g>
			<g>
				<path style="fill:#263238;" d="M366.056,214.336c0.02,0.039-0.367,0.283-1.072,0.685c-0.704,0.401-1.725,0.96-2.973,1.626
					l0.057-0.334c0.973,1.001,2.082,2.141,3.275,3.367l0.223,0.229l-0.275,0.168c-0.483,0.295-0.987,0.604-1.501,0.917
					c-0.794,0.48-1.564,0.946-2.302,1.393l0.045-0.396c1.218,1.22,2.332,2.335,3.296,3.301l0.203,0.203l-0.257,0.113
					c-2.121,0.931-3.456,1.474-3.489,1.404c-0.032-0.07,1.245-0.739,3.326-1.757l-0.054,0.316c-0.988-0.942-2.129-2.029-3.377-3.218
					l-0.236-0.225l0.281-0.172c0.735-0.451,1.503-0.92,2.294-1.406c0.515-0.312,1.02-0.618,1.505-0.912l-0.052,0.397
					c-1.169-1.25-2.255-2.411-3.209-3.431l-0.196-0.21l0.253-0.124c1.27-0.624,2.319-1.127,3.056-1.464
					C365.611,214.469,366.036,214.297,366.056,214.336z"/>
			</g>
			<g>
				<path style="fill:#E0E0E0;" d="M384.413,236.071c0.02,0.039-0.368,0.283-1.072,0.684c-0.704,0.401-1.725,0.96-2.973,1.626
					l0.056-0.334c0.973,1.001,2.082,2.142,3.275,3.367l0.223,0.23l-0.275,0.168c-0.483,0.296-0.987,0.604-1.501,0.918
					c-0.794,0.481-1.565,0.946-2.302,1.393l0.045-0.396c1.219,1.22,2.332,2.335,3.297,3.301l0.203,0.203l-0.257,0.113
					c-2.121,0.931-3.457,1.474-3.489,1.403c-0.033-0.069,1.245-0.739,3.325-1.757l-0.054,0.315
					c-0.989-0.941-2.129-2.028-3.378-3.218l-0.235-0.225l0.281-0.172c0.735-0.451,1.503-0.921,2.294-1.406
					c0.515-0.311,1.02-0.618,1.505-0.912l-0.052,0.397c-1.169-1.25-2.256-2.411-3.209-3.431l-0.197-0.21l0.253-0.124
					c1.27-0.624,2.319-1.127,3.056-1.465C383.968,236.204,384.393,236.033,384.413,236.071z"/>
			</g>
			<g>
				<path style="fill:#E0E0E0;" d="M347.961,235.775c-0.043,0.009-0.174-0.431-0.372-1.216c-0.197-0.786-0.461-1.92-0.768-3.301
					l0.306,0.144c-1.225,0.669-2.621,1.431-4.123,2.251l-0.28,0.153l-0.088-0.31c-0.155-0.545-0.317-1.113-0.481-1.692
					c-0.25-0.894-0.491-1.761-0.723-2.591l0.37,0.15c-1.502,0.846-2.875,1.619-4.065,2.289l-0.25,0.141l-0.04-0.278
					c-0.327-2.293-0.492-3.726-0.415-3.738c0.077-0.013,0.378,1.398,0.8,3.675l-0.289-0.137c1.173-0.7,2.526-1.507,4.007-2.39
					l0.28-0.167l0.09,0.316c0.236,0.83,0.483,1.695,0.738,2.587c0.162,0.58,0.322,1.149,0.475,1.694l-0.368-0.157
					c1.517-0.791,2.928-1.525,4.166-2.17l0.255-0.133l0.052,0.277c0.26,1.391,0.463,2.537,0.59,3.337
					C347.953,235.311,348.004,235.767,347.961,235.775z"/>
			</g>
			<g>
				<path style="fill:#263238;" d="M364.664,245.216c-0.042,0.009-0.174-0.43-0.372-1.216c-0.197-0.786-0.461-1.92-0.768-3.301
					l0.307,0.145c-1.225,0.669-2.621,1.431-4.124,2.251l-0.28,0.152l-0.088-0.309c-0.155-0.545-0.316-1.113-0.481-1.692
					c-0.249-0.895-0.491-1.761-0.723-2.592l0.37,0.15c-1.503,0.846-2.875,1.619-4.065,2.289l-0.25,0.141l-0.039-0.277
					c-0.328-2.293-0.492-3.726-0.416-3.738c0.076-0.013,0.377,1.398,0.799,3.675l-0.29-0.137c1.173-0.699,2.526-1.507,4.007-2.39
					l0.28-0.167l0.09,0.316c0.236,0.83,0.483,1.695,0.738,2.588c0.163,0.58,0.322,1.148,0.475,1.694l-0.368-0.157
					c1.517-0.79,2.928-1.525,4.166-2.17l0.255-0.133l0.052,0.276c0.26,1.391,0.463,2.537,0.59,3.338
					C364.655,244.752,364.706,245.207,364.664,245.216z"/>
			</g>
			<g>
				<path style="fill:#E0E0E0;" d="M340.214,266.042c-0.043,0.009-0.174-0.431-0.372-1.216c-0.198-0.786-0.461-1.92-0.768-3.301
					l0.307,0.144c-1.225,0.669-2.621,1.432-4.123,2.251l-0.28,0.153l-0.088-0.311c-0.155-0.545-0.317-1.113-0.481-1.692
					c-0.25-0.894-0.492-1.761-0.723-2.592l0.37,0.15c-1.503,0.846-2.875,1.619-4.065,2.289l-0.25,0.141l-0.04-0.277
					c-0.327-2.293-0.492-3.726-0.415-3.738c0.077-0.013,0.378,1.397,0.8,3.676l-0.29-0.138c1.173-0.699,2.526-1.506,4.007-2.39
					l0.28-0.167l0.09,0.317c0.236,0.829,0.483,1.694,0.738,2.587c0.162,0.58,0.322,1.148,0.475,1.694l-0.368-0.157
					c1.517-0.79,2.928-1.525,4.166-2.17l0.255-0.133l0.052,0.277c0.26,1.391,0.463,2.536,0.59,3.337
					C340.206,265.578,340.257,266.033,340.214,266.042z"/>
			</g>
			<g>
				<path style="fill:#263238;" d="M340.686,244.191c-0.028,0.033-0.405-0.227-1.051-0.717c-0.646-0.489-1.56-1.209-2.663-2.095
					l0.329-0.079c-0.538,1.288-1.15,2.756-1.809,4.335l-0.123,0.294l-0.263-0.187c-0.462-0.328-0.943-0.671-1.435-1.02
					c-0.753-0.542-1.484-1.066-2.185-1.569l0.382-0.114c-0.643,1.6-1.23,3.062-1.74,4.328l-0.107,0.267l-0.205-0.192
					c-1.689-1.584-2.714-2.599-2.662-2.656c0.052-0.058,1.169,0.854,2.922,2.367l-0.311,0.074c0.478-1.279,1.029-2.755,1.632-4.37
					l0.114-0.306l0.269,0.191c0.704,0.499,1.438,1.02,2.194,1.557c0.49,0.351,0.97,0.695,1.43,1.025l-0.385,0.107
					c0.689-1.565,1.331-3.021,1.893-4.299l0.116-0.263l0.214,0.184c1.073,0.922,1.948,1.689,2.547,2.234
					C340.389,243.835,340.713,244.157,340.686,244.191z"/>
			</g>
			<g>
				<path style="fill:#263238;" d="M349.411,244.781c0.022,0.037-0.346,0.309-1.021,0.758c-0.674,0.45-1.654,1.079-2.852,1.831
					l0.033-0.337c1.041,0.93,2.228,1.989,3.504,3.129l0.238,0.213l-0.263,0.186c-0.461,0.329-0.942,0.672-1.433,1.021
					c-0.758,0.535-1.494,1.054-2.198,1.551l0.017-0.398c1.301,1.132,2.49,2.165,3.521,3.061l0.216,0.189l-0.248,0.13
					c-2.05,1.078-3.344,1.714-3.381,1.646c-0.038-0.068,1.189-0.825,3.193-1.987l-0.032,0.319c-1.052-0.87-2.267-1.874-3.596-2.973
					l-0.251-0.208l0.268-0.191c0.702-0.501,1.434-1.023,2.189-1.563c0.492-0.348,0.974-0.689,1.436-1.016l-0.024,0.4
					c-1.254-1.164-2.419-2.246-3.442-3.196l-0.211-0.195l0.243-0.142c1.223-0.712,2.234-1.287,2.946-1.676
					C348.977,244.944,349.389,244.744,349.411,244.781z"/>
			</g>
			<g>
				<path style="fill:#E0E0E0;" d="M359.039,251.602c0.034,0.027-0.221,0.408-0.702,1.062c-0.48,0.652-1.187,1.577-2.057,2.692
					l-0.084-0.328c1.295,0.52,2.772,1.111,4.36,1.748l0.296,0.119l-0.183,0.266c-0.322,0.466-0.657,0.952-1,1.448
					c-0.53,0.761-1.045,1.499-1.538,2.207l-0.12-0.381c1.609,0.62,3.079,1.188,4.353,1.679l0.268,0.104l-0.189,0.207
					c-1.56,1.712-2.561,2.75-2.619,2.699c-0.058-0.051,0.838-1.181,2.326-2.955l0.079,0.311c-1.286-0.46-2.769-0.99-4.393-1.57
					l-0.307-0.109l0.187-0.271c0.489-0.71,1-1.451,1.526-2.216c0.344-0.494,0.681-0.979,1.005-1.444l0.113,0.384
					c-1.575-0.668-3.04-1.288-4.325-1.833l-0.265-0.112l0.181-0.216c0.907-1.086,1.662-1.972,2.199-2.579
					C358.686,251.903,359.004,251.574,359.039,251.602z"/>
			</g>
		</g>
		<g>
			<path style="fill:#455A64;" d="M353.556,267.898c0.009-0.003,0.048,0.109,0.117,0.33c0.072,0.247,0.167,0.572,0.288,0.984
				c0.244,0.869,0.595,2.154,1.007,3.822c0.4,1.671,0.917,3.712,1.266,6.147c0.219,1.205,0.101,2.63-0.514,3.906
				c-0.587,1.288-1.452,2.514-2.559,3.633l0.053-0.169c2.62,12.435,6.292,29.863,10.355,49.152
				c3.95,18.967,7.478,36.146,9.973,48.593c1.247,6.223,2.236,11.264,2.89,14.752c0.327,1.745,0.57,3.102,0.72,4.024
				c0.152,0.92,0.202,1.418,0.161,1.417c0,0-0.079-0.48-0.264-1.398c-0.193-0.946-0.466-2.289-0.815-4.005
				c-0.727-3.505-1.768-8.526-3.052-14.718c-2.595-12.452-6.171-29.607-10.122-48.56c-4.003-19.302-7.62-36.742-10.2-49.185
				l-0.02-0.097l0.073-0.072c2.124-2.126,3.555-4.814,3.038-7.24c-0.317-2.411-0.806-4.464-1.175-6.137
				c-0.391-1.646-0.697-2.934-0.913-3.842c-0.1-0.418-0.179-0.747-0.239-0.997C353.57,268.017,353.547,267.9,353.556,267.898z"/>
		</g>
		<g>
			<path style="fill:#455A64;" d="M332.505,270.299c0.03-0.011,0.155,0.225,0.309,0.68c0.156,0.453,0.315,1.137,0.375,1.999
				c0.135,1.701-0.282,4.226-1.933,6.352c-1.663,2.119-4.01,3.136-5.693,3.418c-0.851,0.151-1.553,0.164-2.031,0.123
				c-0.478-0.04-0.737-0.104-0.733-0.136c0.003-0.098,1.064,0.036,2.689-0.348c1.603-0.362,3.795-1.384,5.358-3.378
				c1.554-2.001,2.013-4.375,1.975-6.018C332.798,271.323,332.411,270.326,332.505,270.299z"/>
		</g>
		<g>
			<path style="fill:#455A64;" d="M349.253,271.365c-0.022-0.021,0.036-0.145,0.238-0.273c0.197-0.128,0.557-0.233,0.987-0.133
				c0.415,0.078,0.95,0.477,1.019,1.112c0.079,0.594-0.213,1.32-0.903,1.618c-0.7,0.267-1.412-0.042-1.781-0.505
				c-0.401-0.484-0.357-1.12-0.169-1.496c0.405-0.811,1.068-0.827,1.045-0.764c0.039,0.072-0.477,0.23-0.702,0.899
				c-0.106,0.32-0.092,0.744,0.194,1.053c0.269,0.311,0.794,0.501,1.217,0.329c0.42-0.169,0.661-0.678,0.622-1.081
				c-0.023-0.417-0.332-0.701-0.647-0.814C349.708,271.075,349.29,271.435,349.253,271.365z"/>
		</g>
		<g>
			<path style="fill:#455A64;" d="M370.389,273.592c0.027,0.046-0.661,0.484-1.939,0.672c-1.254,0.193-3.145,0.028-4.831-1.058
				c-1.681-1.094-2.606-2.752-2.943-3.976c-0.353-1.242-0.233-2.05-0.182-2.044c0.09-0.006,0.107,0.78,0.531,1.929
				c0.408,1.137,1.323,2.645,2.876,3.653c1.556,1.003,3.306,1.222,4.51,1.129C369.633,273.813,370.357,273.508,370.389,273.592z"/>
		</g>
		<g>
			<path style="fill:#455A64;" d="M381.371,426.479c0.001,0.036-0.354,0.078-0.998,0.123c-0.76,0.042-1.667,0.093-2.723,0.152
				c-2.435,0.115-5.544,0.263-8.982,0.427c-3.439,0.178-6.547,0.338-8.982,0.464c-1.057,0.046-1.964,0.086-2.725,0.119
				c-0.645,0.019-1.002,0.012-1.005-0.024c-0.003-0.035,0.35-0.098,0.989-0.178c0.64-0.082,1.567-0.179,2.714-0.284
				c2.294-0.21,5.47-0.442,8.982-0.617c3.511-0.174,6.694-0.257,8.998-0.274c1.152-0.01,2.085-0.005,2.729,0.014
				C381.013,426.417,381.37,426.443,381.371,426.479z"/>
		</g>
		<g>
			<path style="fill:#455A64;" d="M335.719,281.711c0.14-0.033,8.015,32.43,17.587,72.5c9.575,40.085,17.222,72.596,17.082,72.629
				c-0.14,0.033-8.013-32.423-17.589-72.508C343.228,314.262,335.58,281.744,335.719,281.711z"/>
		</g>
		<g>
			<path style="fill:#455A64;" d="M361.308,282.965c0.007-0.006,0.069,0.066,0.183,0.212c0.129,0.172,0.291,0.387,0.493,0.654
				c0.447,0.613,1.067,1.464,1.855,2.544c1.616,2.255,3.913,5.462,6.743,9.411c2.838,3.994,6.207,8.735,9.945,13.996
				c1.866,2.642,3.823,5.412,5.852,8.284c1.969,2.888,3.99,6.113,4.536,9.915c0.541,3.811-0.581,7.468-1.739,10.762
				c-1.2,3.313-2.4,6.484-3.567,9.5c-2.335,6.03-4.562,11.412-6.486,15.906c-1.929,4.493-3.558,8.099-4.706,10.58
				c-0.57,1.209-1.02,2.161-1.343,2.848c-0.149,0.3-0.268,0.542-0.363,0.733c-0.085,0.164-0.132,0.247-0.14,0.243
				c-0.008-0.004,0.022-0.094,0.091-0.265c0.082-0.198,0.186-0.446,0.316-0.756c0.302-0.695,0.722-1.661,1.254-2.887
				c1.091-2.506,2.668-6.132,4.552-10.641c1.88-4.51,4.07-9.9,6.377-15.935c1.153-3.017,2.345-6.194,3.534-9.498
				c1.148-3.28,2.228-6.859,1.704-10.519c-0.521-3.656-2.486-6.825-4.44-9.699c-2.019-2.877-3.967-5.651-5.823-8.297
				c-3.705-5.285-7.042-10.048-9.854-14.061c-2.773-3.989-5.024-7.228-6.608-9.507c-0.753-1.104-1.347-1.974-1.775-2.6
				c-0.184-0.28-0.333-0.505-0.451-0.684C361.348,283.052,361.301,282.97,361.308,282.965z"/>
		</g>
		<g>
			<polygon style="fill:#263238;" points="412.127,203.61 434.461,187.314 435.56,189.064 413.371,205.561 			"/>
			<path style="fill:#FFBE9D;" d="M417.647,203.109c0,0,2.996-7.797,3.671-9.458c0.675-1.661,1.815-4.555,2.242-4.613
				c0.426-0.058,1.987,0.187-0.052,5.146c-2.039,4.96,2.413,1.928,2.413,1.928l4.301-3.078c0,0,3.402,10.155,1.464,13.213
				c-2.091,3.3-5.095,6.46-5.095,6.46L417.647,203.109z"/>
		</g>
	</g>
</g>
</svg>
